<svg xmlns="http://www.w3.org/2000/svg" viewBox="0 0 789.766 228.239"><g fill="#fff"><path d="M789.766 182.239H776.4l-24.623 20.843v-18.394l-8.545-7.23v50.781h8.545v-20.843l24.343 20.607.28.236h13.365l-27.17-23.001zM700.098 216.584l-46.375-39.122v50.777h8.559v-32.437l38.45 32.437h7.925v-43.556l-8.559-7.22zM599.172 228.239h8.544v-43.551l-8.544-7.23zM514.174 184.688l-8.544-7.23v50.781h50.55v-8.545h-42.006zM420.399 190.684h20.697v37.555h8.444v-37.555h20.695v-8.445h-49.836zM338.835 228.239h8.753l11.214-19.422 5.815 5.815h16.065l7.856 13.606h8.752l-29.228-50.625zm29.229-35.463 7.744 13.412H360.32zM262.219 228.239h50.541v-8.561l-42.082.1v-15.757l5.045 5.043h33.606v-8.559h-38.651v-9.706h42.183v-8.56h-50.642zM218.68 182.238h-40.268v46h40.62c7.408 0 13.435-6.026 13.435-13.435 0-3.487-1.367-6.829-3.782-9.324a13.8 13.8 0 0 0 3.782-9.453c0-7.602-6.185-13.788-13.787-13.788m-31.723 27.575h32.075c2.751 0 4.99 2.238 4.99 4.99s-2.238 4.991-4.99 4.991h-32.075zm31.723-8.443h-31.723v-10.687h31.723c2.996 0 5.343 2.347 5.343 5.343a5.35 5.35 0 0 1-5.343 5.344M693.092 151.747V95.715l-10.317-8.73v75.078h76.538v-10.316zM667.345 162.063l-43.347-75.079-43.348 75.079h10.16l33.188-57.483 14.939 25.874h-29.878l10.159 10.158h25.584l12.385 21.451zM544.792 150.182l33.188-57.484h10.16l-43.348 75.079-43.348-75.079h10.16zM472.849 162.063h10.317V95.714l-10.317-8.73zM411.223 150.182l33.188-57.484h10.159l-43.347 75.079-43.348-75.079h10.159zM288.555 151.825v-30.158l10.159 10.158h50.636v-10.317h-60.795v-18.413h66.349V92.777h-76.508v69.207h76.35v-10.317zM230 133.016h10.317c11.111 0 20.158-9.048 20.158-20.158s-9.047-20.159-20.158-20.159h-61.905v69.365h10.317v-29.048h25.238l34.127 28.889h16.19zm-41.27-10.159v-20h51.588c5.556 0 10 4.444 10 10s-4.444 10-10 10zM525.951 5.714h-75.412v10.159h32.627v59.206h10.16V15.873h32.625zM454.569 75.08 411.223 0l-43.348 75.08h10.159l33.189-57.484 14.938 25.874h-29.877l10.158 10.158h25.584l12.385 21.452zM288.555 64.841V34.683l10.159 10.158h50.635V34.523h-60.794V16.11h66.35V5.793h-76.509V75h76.35V64.683zM253.825 40.79c4.073-3.691 6.651-9.004 6.651-14.917 0-11.111-9.047-20.159-20.158-20.159h-61.905v69.365h62.46c10.827 0 19.604-8.776 19.604-19.604-.001-5.855-2.579-11.097-6.652-14.685M188.73 15.873h51.588c5.556 0 10 4.444 10 10s-4.444 10-10 10H188.73zm52.143 49.047H188.73V46.032h52.143c5.208 0 9.444 4.236 9.444 9.443 0 5.209-4.236 9.445-9.444 9.445M0 26.508s.635 12.223 38.095 49.683l-12.381 26.984 33.175-9.683 17.619 46.35 19.206-48.73H140s-17.778-23.333-58.571-33.175C40.635 48.254 18.412 42.381 0 26.508m143.492 56.984V0H9.206v8.096C21.27 20.635 32.54 32.223 83.016 48.571c41.746 13.492 55.873 28.413 60.476 34.921M9.206 161.905h134.286V98.254H101.27l-25.08 60.953-25.238-47.302-41.904 28.572v21.429h.158z"/></g></svg>